<svg xmlns="http://www.w3.org/2000/svg" xmlns:xlink="http://www.w3.org/1999/xlink" version="1.1" x="0px" y="0px" viewBox="0 0 1024 1280" style="enable-background:new 0 0 1024 1024;" xml:space="preserve"><g><g><g><g><path d="M204.4,451.5c4.7-21.7,11.3-43,19.9-63.5c-1.3,3.2-2.7,6.4-4,9.6c11.9-28,27.2-54.3,45.8-78.4      c-2.1,2.7-4.2,5.4-6.3,8.1c18.4-23.8,39.7-45.1,63.5-63.6c-2.7,2.1-5.4,4.2-8.1,6.3c23.9-18.4,50.1-33.7,77.9-45.5      c-3.2,1.3-6.4,2.7-9.6,4c29.1-12.2,59.6-20.4,90.8-24.6c-3.5,0.5-7.1,1-10.6,1.4c30.9-4,62.1-4,92.9,0.1      c-3.5-0.5-7.1-1-10.6-1.4c30.9,4.2,61.1,12.6,89.9,24.7c-3.2-1.3-6.4-2.7-9.6-4c28,12,54.4,27.4,78.5,46.1      c-2.7-2.1-5.4-4.2-8.1-6.3c23.4,18.3,44.5,39.3,62.7,62.8c-2.1-2.7-4.2-5.4-6.3-8.1c18.5,24,33.8,50.3,45.6,78.2      c-1.3-3.2-2.7-6.4-4-9.6c8,19.3,14.4,39.2,19,59.5c4.6,20.4,29.3,34.4,49.2,27.9c21.4-6.9,32.9-27.3,27.9-49.2      c-15.3-67.4-49.1-130.2-96.4-180.7c-45.8-48.9-104.7-85.2-168.4-105.4c-66.2-21-138-22.9-205.6-7.5      c-68.6,15.7-132.8,51.1-183.3,100c-49.2,47.6-85.6,108.8-104.3,174.7c-2.2,7.6-4,15.3-5.7,23c-2.3,10.5-1.5,21.4,4,30.8      c4.9,8.3,14.4,16.2,23.9,18.4c10.2,2.3,21.7,1.8,30.8-4C194.5,469.9,202.2,461.7,204.4,451.5L204.4,451.5z"/></g></g><g><g><path d="M865,280.3c-14.9,42.6-29.8,85.3-44.7,127.9c-2.1,6-4.2,12-6.3,18.1c16.4-9.3,32.8-18.6,49.2-27.9      c-42.6-14.9-85.3-29.8-127.9-44.7c-6-2.1-12-4.2-18.1-6.3c-9.4-3.3-22.4-0.9-30.8,4c-8.3,4.9-16.2,14.4-18.4,23.9      c-2.3,10.2-1.8,21.7,4,30.8c5.9,9.1,13.6,14.8,23.9,18.4c42.6,14.9,85.3,29.8,127.9,44.7c6,2.1,12,4.2,18.1,6.3      c9,3.2,22.9,1.1,30.8-4c9.1-5.9,14.8-13.6,18.4-23.9c14.9-42.6,29.8-85.3,44.7-127.9c2.1-6,4.2-12,6.3-18.1      c3.3-9.4,0.9-22.4-4-30.8c-4.9-8.3-14.4-16.2-23.9-18.4c-10.2-2.3-21.7-1.8-30.8,4C874.3,262.2,868.6,270,865,280.3L865,280.3z"/></g></g></g><g><g><g><path d="M820,572.6c-4.7,21.7-11.3,43-19.9,63.5c1.3-3.2,2.7-6.4,4-9.6c-11.9,28-27.2,54.3-45.8,78.4      c2.1-2.7,4.2-5.4,6.3-8.1c-18.4,23.8-39.7,45.1-63.5,63.6c2.7-2.1,5.4-4.2,8.1-6.3c-23.9,18.4-50.1,33.7-77.9,45.5      c3.2-1.3,6.4-2.7,9.6-4c-29.1,12.2-59.6,20.4-90.8,24.6c3.5-0.5,7.1-1,10.6-1.4c-30.9,4-62.1,4-92.9-0.1c3.5,0.5,7.1,1,10.6,1.4      c-30.9-4.2-61.1-12.6-89.9-24.7c3.2,1.3,6.4,2.7,9.6,4c-28-12-54.4-27.4-78.5-46.1c2.7,2.1,5.4,4.2,8.1,6.3      c-23.4-18.3-44.5-39.3-62.7-62.8c2.1,2.7,4.2,5.4,6.3,8.1c-18.5-24-33.8-50.3-45.6-78.2c1.3,3.2,2.7,6.4,4,9.6      c-8-19.3-14.4-39.2-19-59.5c-4.6-20.4-29.3-34.4-49.2-27.9c-21.4,6.9-32.9,27.3-27.9,49.2c15.3,67.4,49.1,130.2,96.4,180.7      c45.8,48.9,104.7,85.2,168.4,105.4c66.2,21,138,22.9,205.6,7.5c68.6-15.7,132.8-51.1,183.3-100      c49.2-47.6,85.6-108.8,104.3-174.7c2.2-7.6,4-15.3,5.7-23c2.3-10.5,1.5-21.4-4-30.8c-4.9-8.3-14.4-16.2-23.9-18.4      c-10.2-2.3-21.7-1.8-30.8,4C829.9,554.1,822.2,562.4,820,572.6L820,572.6z"/></g></g><g><g><path d="M159.4,743.8c14.9-42.6,29.8-85.3,44.7-127.9c2.1-6,4.2-12,6.3-18.1c-16.4,9.3-32.8,18.6-49.2,27.9      c42.6,14.9,85.3,29.8,127.9,44.7c6,2.1,12,4.2,18.1,6.3c9.4,3.3,22.4,0.9,30.8-4c8.3-4.9,16.2-14.4,18.4-23.9      c2.3-10.2,1.8-21.7-4-30.8c-5.9-9.1-13.6-14.8-23.9-18.4c-42.6-14.9-85.3-29.8-127.9-44.7c-6-2.1-12-4.2-18.1-6.3      c-9-3.2-22.9-1.1-30.8,4c-9.1,5.9-14.8,13.6-18.4,23.9c-14.9,42.6-29.8,85.3-44.7,127.9c-2.1,6-4.2,12-6.3,18.1      c-3.3,9.4-0.9,22.4,4,30.8c4.9,8.3,14.4,16.2,23.9,18.4c10.2,2.3,21.7,1.8,30.8-4C150.1,761.8,155.8,754,159.4,743.8      L159.4,743.8z"/></g></g></g></g><text x="0" y="1039" fill="#000000" font-size="5px" font-weight="bold" font-family="'Helvetica Neue', Helvetica, Arial-Unicode, Arial, Sans-serif">Created by shashank singh</text><text x="0" y="1044" fill="#000000" font-size="5px" font-weight="bold" font-family="'Helvetica Neue', Helvetica, Arial-Unicode, Arial, Sans-serif">from the Noun Project</text></svg>